HIERARCHY
ROOT Hips
{
	OFFSET 0.000000 1.471914 24.280096
	CHANNELS 6 Xposition Yposition Zposition Xrotation Yrotation Zrotation
	JOINT Spine
	{
		OFFSET 0.000000 0.900110 1.860670
		CHANNELS 6 Xposition Yposition Zposition Xrotation Yrotation Zrotation
		JOINT Spine1
		{
			OFFSET 0.000000 0.400320 2.270309
			CHANNELS 6 Xposition Yposition Zposition Xrotation Yrotation Zrotation
			JOINT Spine2
			{
				OFFSET 0.000000 0.200920 2.296560
				CHANNELS 6 Xposition Yposition Zposition Xrotation Yrotation Zrotation
				JOINT Spine3
				{
					OFFSET 0.000000 0.000000 2.305330
					CHANNELS 6 Xposition Yposition Zposition Xrotation Yrotation Zrotation
					JOINT Neck
					{
						OFFSET 0.000000 -0.864490 6.051487
						CHANNELS 6 Xposition Yposition Zposition Xrotation Yrotation Zrotation
						JOINT Head
						{
							OFFSET 0.000000 -0.550429 3.121674
							CHANNELS 6 Xposition Yposition Zposition Xrotation Yrotation Zrotation
							End Site
							{
								OFFSET 0.000000 0.000000 3.731750
							}
						}
					}
					JOINT RightShoulder
					{
						OFFSET -0.788280 -1.313800 4.256718
						CHANNELS 6 Xposition Yposition Zposition Xrotation Yrotation Zrotation
						JOINT RightArm
						{
							OFFSET -3.915130 0.000000 0.000000
							CHANNELS 6 Xposition Yposition Zposition Xrotation Yrotation Zrotation
							JOINT RightForeArm
							{
								OFFSET -6.914910 0.000000 0.000000
								CHANNELS 6 Xposition Yposition Zposition Xrotation Yrotation Zrotation
								JOINT RightHand
								{
									OFFSET -6.096219 0.000000 0.000000
									CHANNELS 6 Xposition Yposition Zposition Xrotation Yrotation Zrotation
									JOINT RightHandEnd
									{
										OFFSET -1.749950 0.000000 0.000000
										CHANNELS 6 Xposition Yposition Zposition Xrotation Yrotation Zrotation
										End Site
										{
											OFFSET -1.749950 0.000000 0.000000
										}
									}
									JOINT RightHandThumb1
									{
										OFFSET -0.699980 -1.166630 -0.466648
										CHANNELS 6 Xposition Yposition Zposition Xrotation Yrotation Zrotation
										End Site
										{
											OFFSET -1.690319 -0.452920 0.000000
										}
									}
								}
							}
						}
					}
					JOINT LeftShoulder
					{
						OFFSET 0.788280 -1.313800 4.256718
						CHANNELS 6 Xposition Yposition Zposition Xrotation Yrotation Zrotation
						JOINT LeftArm
						{
							OFFSET 3.915130 0.000000 0.000000
							CHANNELS 6 Xposition Yposition Zposition Xrotation Yrotation Zrotation
							JOINT LeftForeArm
							{
								OFFSET 6.914910 0.000000 0.000000
								CHANNELS 6 Xposition Yposition Zposition Xrotation Yrotation Zrotation
								JOINT LeftHand
								{
									OFFSET 6.096219 0.000000 0.000000
									CHANNELS 6 Xposition Yposition Zposition Xrotation Yrotation Zrotation
									JOINT LeftHandEnd
									{
										OFFSET 1.749950 0.000000 0.000000
										CHANNELS 6 Xposition Yposition Zposition Xrotation Yrotation Zrotation
										End Site
										{
											OFFSET 1.749950 0.000000 0.000000
										}
									}
									JOINT LeftHandThumb1
									{
										OFFSET 0.699980 -1.166630 -0.466648
										CHANNELS 6 Xposition Yposition Zposition Xrotation Yrotation Zrotation
										End Site
										{
											OFFSET 1.690319 -0.452920 0.000000
										}
									}
								}
							}
						}
					}
				}
			}
		}
	}
	JOINT RightUpLeg
	{
		OFFSET -2.338570 -0.252550 -0.551512
		CHANNELS 6 Xposition Yposition Zposition Xrotation Yrotation Zrotation
		JOINT RightLeg
		{
			OFFSET 0.000000 0.000000 -10.744959
			CHANNELS 6 Xposition Yposition Zposition Xrotation Yrotation Zrotation
			JOINT RightFoot
			{
				OFFSET 0.000000 -0.000001 -10.930849
				CHANNELS 6 Xposition Yposition Zposition Xrotation Yrotation Zrotation
				JOINT RightToeBase
				{
					OFFSET 0.000000 -4.087269 -1.487650
					CHANNELS 6 Xposition Yposition Zposition Xrotation Yrotation Zrotation
					End Site
					{
						OFFSET 0.000000 -1.891870 0.000000
					}
				}
			}
		}
	}
	JOINT LeftUpLeg
	{
		OFFSET 2.338570 -0.252550 -0.551512
		CHANNELS 6 Xposition Yposition Zposition Xrotation Yrotation Zrotation
		JOINT LeftLeg
		{
			OFFSET 0.000000 0.000000 -10.744959
			CHANNELS 6 Xposition Yposition Zposition Xrotation Yrotation Zrotation
			JOINT LeftFoot
			{
				OFFSET 0.000000 -0.000001 -10.930849
				CHANNELS 6 Xposition Yposition Zposition Xrotation Yrotation Zrotation
				JOINT LeftToeBase
				{
					OFFSET 0.000000 -4.087269 -1.487650
					CHANNELS 6 Xposition Yposition Zposition Xrotation Yrotation Zrotation
					End Site
					{
						OFFSET 0.000000 -1.891870 0.000000
					}
				}
			}
		}
	}
}
MOTION
Frames: 6
Frame Time: 0.041667
-0.000032 26.542404 40.014221 -16.060227 5.421550 -9.592576 -0.000014 0.900092 1.860672 32.982567 0.032524 -2.513490 0.000011 0.400263 2.270315 0.000000 -0.000001 0.000010 0.000025 0.200890 2.296556 0.000004 0.000000 0.000002 0.000027 0.000015 2.305317 0.000005 0.000001 -1.557407 -0.000019 -0.864473 6.051451 -5.034976 -9.806072 -178.255793 0.000006 -0.550418 3.121692 -0.000008 -0.000002 -0.000004 -0.788274 -1.313726 4.256837 -118.159185 49.462379 -66.019263 -3.915143 -0.000037 -0.000019 0.000000 -0.000002 -0.000002 -6.914919 -0.000018 0.000003 -0.000000 -0.000005 -25.006431 -6.096178 0.000007 0.000045 -0.000060 0.000006 -0.000038 -1.749889 -0.000043 0.000045 -0.000004 -0.000003 -0.000002 -0.699970 -1.166623 -0.466659 -0.000009 -0.000006 -0.000004 0.788260 -1.313758 4.256787 -150.859713 -65.232227 33.123552 3.915172 0.000014 -0.000038 0.000004 0.000001 0.000006 6.914935 -0.000068 -0.000001 -0.000010 0.000001 21.190688 6.096211 0.000102 -0.000033 0.000031 -0.000031 -0.000030 1.749977 0.000007 0.000021 0.000001 -0.000006 -0.000001 0.699950 -1.166628 -0.466627 0.000007 0.000007 -0.000024 -2.338576 -0.252537 -0.551489 25.647937 -3.493980 -2.008333 0.000013 -0.000029 -10.744961 8.447445 3.469468 -1.121178 -0.000016 0.000090 -10.930830 -0.000002 -0.000002 -0.000001 0.000010 -4.087248 -1.487646 -0.000005 0.000002 -0.000000 2.338571 -0.252543 -0.551473 26.273728 -4.199840 -2.064273 0.000002 -0.000024 -10.744918 7.007882 0.956517 -1.022608 -0.000004 -0.000001 -10.930872 0.000010 -0.000006 0.000002 -0.000015 -4.087211 -1.487647 -0.000002 0.000001 0.000000 
-0.000035 26.542408 40.014229 -16.089670 5.388966 -9.519577 -0.000014 0.900090 1.860657 33.199893 -0.026697 -2.505973 0.000011 0.400267 2.270329 0.000001 -0.000001 0.000009 0.000025 0.200896 2.296562 0.000002 -0.000000 0.000001 0.000026 0.000018 2.305321 0.000003 0.000002 -1.643913 -0.000020 -0.864475 6.051454 -4.852044 -9.151266 -178.526446 0.000008 -0.550417 3.121692 -0.000009 -0.000002 -0.000004 -0.788277 -1.313730 4.256832 -118.279793 49.385478 -65.906606 -3.915137 -0.000032 -0.000023 0.000001 -0.000002 -0.000003 -6.914912 -0.000024 0.000003 0.000002 -0.000004 -24.887198 -6.096177 0.000009 0.000046 -0.000060 0.000008 -0.000038 -1.749883 -0.000045 0.000041 -0.000002 -0.000002 -0.000000 -0.699968 -1.166627 -0.466659 -0.000009 -0.000005 0.000000 0.788259 -1.313765 4.256780 -138.588595 -61.969535 44.684747 3.915171 0.000008 -0.000046 0.000003 -0.000001 0.000007 6.914938 -0.000072 -0.000001 -0.000009 -0.000000 21.473254 6.096213 0.000100 -0.000036 0.000036 -0.000032 -0.000031 1.749983 0.000005 0.000025 0.000004 -0.000006 -0.000001 0.699955 -1.166630 -0.466627 0.000009 0.000003 -0.000022 -2.338576 -0.252540 -0.551501 25.435194 -3.534371 -1.975265 0.000014 -0.000033 -10.744961 8.367480 3.894322 -1.111692 -0.000016 0.000091 -10.930831 -0.000003 -0.000002 -0.000002 0.000011 -4.087250 -1.487644 0.000001 0.000003 -0.000001 2.338571 -0.252541 -0.551487 26.299030 -4.194698 -2.047778 0.000002 -0.000017 -10.744923 6.665242 1.224196 -0.967296 -0.000003 -0.000005 -10.930865 0.000009 -0.000005 -0.000001 -0.000015 -4.087205 -1.487649 0.000003 0.000002 0.000000 
-0.000035 26.542408 40.014229 -16.102856 5.428100 -9.583082 -0.000013 0.900096 1.860664 33.067589 -0.407207 -2.518399 0.000012 0.400265 2.270321 0.000003 -0.000002 0.000009 0.000026 0.200892 2.296564 0.000005 0.000001 0.000001 0.000025 0.000016 2.305321 0.000007 0.000002 -1.673640 -0.000020 -0.864480 6.051439 -4.268401 -8.614391 -177.754239 0.000007 -0.550415 3.121696 -0.000008 -0.000001 -0.000003 -0.788275 -1.313733 4.256832 -118.433896 49.488323 -65.617504 -3.915134 -0.000036 -0.000019 -0.000001 -0.000000 -0.000000 -6.914910 -0.000024 0.000002 -0.000002 -0.000005 -25.243981 -6.096178 0.000008 0.000049 -0.000061 0.000009 -0.000042 -1.749884 -0.000047 0.000042 -0.000005 -0.000003 -0.000004 -0.699969 -1.166626 -0.466658 -0.000011 -0.000007 -0.000003 0.788256 -1.313767 4.256774 -131.783268 -59.193404 50.851609 3.915173 0.000018 -0.000046 0.000009 -0.000002 0.000009 6.914940 -0.000064 -0.000005 -0.000012 -0.000001 21.689028 6.096210 0.000103 -0.000033 0.000035 -0.000033 -0.000031 1.749980 0.000004 0.000022 0.000001 -0.000005 -0.000003 0.699957 -1.166631 -0.466630 0.000005 0.000002 -0.000024 -2.338576 -0.252535 -0.551494 25.257287 -3.256421 -1.977004 0.000012 -0.000034 -10.744959 8.460576 3.818090 -1.088919 -0.000015 0.000091 -10.930832 -0.000005 -0.000002 0.000000 0.000011 -4.087248 -1.487643 -0.000004 0.000003 -0.000001 2.338571 -0.252537 -0.551480 26.587594 -3.666819 -2.082582 0.000002 -0.000021 -10.744919 6.240919 0.731405 -0.851161 -0.000003 -0.000003 -10.930870 0.000012 -0.000004 0.000000 -0.000014 -4.087216 -1.487647 -0.000004 0.000001 -0.000001 
-0.000035 26.542408 40.014217 -16.137922 5.272076 -9.524741 -0.000013 0.900094 1.860666 33.016117 -0.511763 -2.660302 0.000011 0.400261 2.270319 0.000001 -0.000001 0.000010 0.000025 0.200897 2.296553 0.000002 0.000000 0.000001 0.000027 0.000016 2.305321 0.000009 0.000003 -1.566091 -0.000020 -0.864478 6.051447 -3.778214 -7.913184 -177.700881 0.000007 -0.550417 3.121700 -0.000008 -0.000001 -0.000002 -0.788277 -1.313732 4.256838 -118.555514 49.412997 -65.447562 -3.915140 -0.000035 -0.000023 -0.000003 -0.000000 -0.000001 -6.914909 -0.000018 -0.000001 0.000000 -0.000005 -25.737184 -6.096178 0.000007 0.000050 -0.000065 0.000006 -0.000040 -1.749884 -0.000043 0.000041 -0.000004 -0.000001 -0.000001 -0.699972 -1.166623 -0.466660 -0.000011 -0.000006 -0.000003 0.788259 -1.313764 4.256782 -128.221652 -56.276258 53.662785 3.915177 0.000015 -0.000034 0.000007 -0.000001 0.000009 6.914942 -0.000061 -0.000001 -0.000013 0.000002 22.229704 6.096211 0.000103 -0.000025 0.000032 -0.000032 -0.000031 1.749985 0.000006 0.000021 0.000001 -0.000005 -0.000001 0.699957 -1.166632 -0.466627 0.000010 0.000003 -0.000022 -2.338576 -0.252537 -0.551496 25.173209 -3.000482 -2.084060 0.000011 -0.000029 -10.744952 8.564914 4.016861 -1.099968 -0.000016 0.000090 -10.930830 -0.000003 -0.000002 -0.000003 0.000010 -4.087243 -1.487644 -0.000004 0.000002 0.000000 2.338571 -0.252536 -0.551479 26.698987 -3.169030 -2.208855 0.000003 -0.000023 -10.744922 6.019844 0.321572 -0.793548 -0.000003 -0.000005 -10.930868 0.000014 -0.000004 -0.000000 -0.000014 -4.087208 -1.487646 0.000001 0.000001 -0.000000 
-0.000036 26.542400 40.014194 -16.231200 5.339728 -9.645659 -0.000013 0.900096 1.860670 32.716982 -0.850860 -2.669544 0.000012 0.400264 2.270323 0.000001 -0.000001 0.000009 0.000026 0.200896 2.296566 -0.000000 -0.000000 0.000002 0.000027 0.000022 2.305321 0.000006 0.000004 -1.387234 -0.000019 -0.864473 6.051447 -3.373225 -7.180788 -177.369959 0.000007 -0.550418 3.121696 -0.000006 -0.000002 -0.000003 -0.788276 -1.313725 4.256839 -118.831208 49.321240 -65.098594 -3.915146 -0.000038 -0.000023 -0.000004 -0.000003 0.000001 -6.914920 -0.000016 -0.000001 -0.000001 -0.000007 -25.690013 -6.096180 0.000008 0.000049 -0.000065 0.000005 -0.000038 -1.749883 -0.000046 0.000041 -0.000000 -0.000002 -0.000000 -0.699965 -1.166626 -0.466659 -0.000009 -0.000007 -0.000003 0.788263 -1.313758 4.256785 -126.813513 -55.468554 54.601509 3.915172 0.000014 -0.000038 0.000005 -0.000000 0.000006 6.914946 -0.000064 0.000002 -0.000013 0.000000 22.546596 6.096217 0.000102 -0.000034 0.000031 -0.000028 -0.000032 1.749983 0.000013 0.000021 -0.000004 -0.000005 0.000001 0.699954 -1.166623 -0.466634 0.000004 0.000002 -0.000020 -2.338575 -0.252535 -0.551496 25.305655 -2.859308 -2.117110 0.000013 -0.000028 -10.744954 8.575062 4.262920 -1.086526 -0.000015 0.000088 -10.930830 -0.000003 -0.000002 -0.000001 0.000011 -4.087247 -1.487643 -0.000002 0.000002 -0.000001 2.338571 -0.252537 -0.551479 27.132711 -2.860112 -2.265194 0.000003 -0.000023 -10.744915 5.456888 0.234738 -0.692871 -0.000004 -0.000001 -10.930868 0.000015 -0.000005 0.000000 -0.000014 -4.087209 -1.487646 0.000000 0.000001 0.000001 
-0.000036 26.542395 40.014179 -16.283321 5.283771 -9.821217 -0.000014 0.900092 1.860670 32.283050 -1.148104 -2.789724 0.000011 0.400264 2.270325 -0.000002 -0.000002 0.000009 0.000025 0.200892 2.296559 0.000000 -0.000000 0.000001 0.000027 0.000018 2.305325 0.000007 0.000003 -1.432397 -0.000019 -0.864482 6.051450 -3.171122 -6.038784 -176.945667 0.000007 -0.550419 3.121685 -0.000008 -0.000000 -0.000003 -0.788276 -1.313733 4.256834 -119.335576 50.417099 -64.526327 -3.915141 -0.000036 -0.000023 0.000002 -0.000003 0.000000 -6.914920 -0.000017 0.000003 -0.000000 -0.000004 -25.279654 -6.096180 0.000008 0.000045 -0.000059 0.000006 -0.000037 -1.749884 -0.000048 0.000038 -0.000007 -0.000004 -0.000003 -0.699966 -1.166627 -0.466667 -0.000011 -0.000009 -0.000002 0.788258 -1.313770 4.256787 -126.151326 -54.874617 54.876130 3.915177 0.000016 -0.000042 0.000005 -0.000002 0.000010 6.914943 -0.000064 -0.000002 -0.000014 -0.000001 22.550062 6.096218 0.000104 -0.000029 0.000031 -0.000032 -0.000029 1.749979 0.000009 0.000020 -0.000001 -0.000005 -0.000002 0.699956 -1.166627 -0.466627 0.000005 0.000004 -0.000022 -2.338576 -0.252541 -0.551494 25.300841 -2.428064 -2.235988 0.000012 -0.000030 -10.744957 8.645795 4.229076 -1.068635 -0.000016 0.000089 -10.930828 -0.000002 -0.000002 -0.000000 0.000011 -4.087250 -1.487646 -0.000002 0.000003 -0.000002 2.338570 -0.252540 -0.551478 27.447361 -2.498266 -2.417898 0.000003 -0.000019 -10.744911 5.462066 0.048439 -0.681523 -0.000003 -0.000007 -10.930871 0.000014 -0.000004 0.000000 -0.000014 -4.087208 -1.487646 0.000000 0.000001 -0.000003 
